<?xml version="1.0" standalone="no"?>
<!DOCTYPE svg PUBLIC "-//W3C//DTD SVG 20010904//EN"
 "http://www.w3.org/TR/2001/REC-SVG-20010904/DTD/svg10.dtd">
<svg version="1.0" xmlns="http://www.w3.org/2000/svg"
 width="981.000000pt" height="981.000000pt" viewBox="0 0 981.000000 981.000000"
 preserveAspectRatio="xMidYMid meet">
<metadata>
Created by potrace 1.11, written by Peter Selinger 2001-2013
</metadata>
<g transform="translate(0.000000,981.000000) scale(0.100000,-0.100000)"
fill="#000000" stroke="none">
<path d="M3426 9713 c-125 -123 -186 -204 -242 -318 -158 -327 -147 -739 30
-1110 51 -106 161 -275 241 -369 l57 -68 -33 -51 c-136 -215 -213 -376 -290
-609 -58 -172 -86 -295 -99 -426 -11 -115 -6 -109 -210 -327 -154 -165 -230
-257 -230 -279 0 -20 166 -222 248 -302 302 -293 742 -497 1282 -594 280 -50
1126 -53 1425 -5 566 90 1052 323 1366 653 83 87 199 237 199 257 0 12 -130
162 -260 300 -168 178 -169 180 -187 322 -40 314 -158 635 -346 942 l-76 124
46 46 c95 96 248 341 303 485 76 197 111 438 91 624 -28 271 -115 467 -291
655 -59 63 -157 147 -171 147 -2 0 -4 -73 -4 -162 0 -186 -13 -263 -75 -451
-49 -145 -115 -276 -194 -381 -77 -102 -274 -306 -334 -346 -54 -36 -55 -36
-222 20 -209 71 -295 84 -545 85 -249 0 -326 -11 -499 -72 -165 -57 -204 -65
-240 -46 -46 23 -284 266 -356 363 -69 93 -154 261 -195 384 -52 156 -66 241
-72 429 -3 97 -8 177 -12 177 -3 0 -51 -44 -105 -97z"/>
<path d="M860 6736 c-101 -29 -128 -54 -218 -203 -83 -137 -586 -1149 -612
-1231 -17 -55 -21 -85 -17 -123 22 -186 208 -308 388 -255 120 34 139 61 381
530 183 353 256 486 269 486 13 0 648 -485 928 -709 52 -42 98 -78 103 -81 4
-3 -21 -105 -56 -225 -35 -121 -73 -264 -85 -317 -13 -54 -30 -106 -39 -117
-15 -16 -88 -26 -587 -81 -918 -100 -1113 -128 -1183 -170 -38 -24 -88 -90
-103 -139 -13 -42 -27 -1013 -19 -1261 6 -147 7 -158 35 -209 57 -104 166
-174 270 -174 106 0 220 76 271 180 24 48 28 73 35 192 4 75 8 282 9 461 0
179 3 348 6 376 l7 52 76 7 c115 10 1051 115 1087 121 l31 6 6 -209 c10 -294
50 -666 93 -853 l15 -65 -26 -22 c-46 -40 -143 -92 -775 -415 -879 -450 -1021
-525 -1057 -560 -43 -42 -75 -120 -81 -198 -4 -63 -2 -71 52 -190 120 -262
508 -1010 618 -1191 60 -98 130 -138 245 -139 160 -1 290 115 309 273 6 47 2
65 -31 148 -21 52 -109 237 -196 411 -168 337 -249 509 -249 532 0 8 56 44
128 81 210 111 1205 613 1229 619 20 6 32 -13 142 -231 219 -434 418 -711 722
-1009 412 -403 902 -674 1399 -773 83 -17 334 -51 372 -51 5 0 8 1102 8 2448
l0 2449 -137 7 c-890 43 -1617 348 -2063 866 -52 60 -97 110 -100 110 -3 0
-18 -25 -35 -56 -16 -30 -39 -64 -51 -75 l-21 -20 -284 216 c-698 530 -977
737 -1024 760 -62 31 -127 38 -185 21z"/>
<path d="M8795 6729 c-37 -11 -229 -152 -773 -567 -229 -176 -450 -343 -490
-372 -83 -61 -75 -63 -135 42 -17 32 -36 58 -42 58 -5 0 -21 -17 -35 -37 -41
-61 -228 -249 -319 -322 -188 -150 -456 -306 -668 -390 -313 -124 -863 -230
-1195 -231 l-78 0 0 -2450 c0 -1347 3 -2450 8 -2450 37 0 285 34 366 51 768
155 1481 688 1952 1459 32 52 110 198 175 325 64 126 121 231 127 233 10 3
817 -401 1180 -591 105 -55 192 -106 192 -114 0 -20 -114 -260 -278 -588 -152
-301 -202 -423 -202 -489 0 -96 84 -218 182 -264 90 -42 240 -21 318 45 17 14
46 53 66 86 125 211 540 1025 625 1223 37 87 41 103 36 153 -8 71 -60 175
-107 212 -19 15 -249 136 -510 269 -1146 585 -1269 650 -1304 689 -14 16 -14
24 -1 89 44 211 81 556 91 858 l7 196 26 -5 c14 -3 283 -34 597 -69 l571 -63
7 -74 c3 -41 6 -230 6 -420 1 -393 8 -505 40 -580 26 -60 95 -127 167 -162
131 -63 307 11 380 159 l28 57 0 680 0 680 -29 63 c-73 159 -80 160 -1191 283
-452 50 -655 77 -666 86 -10 8 -27 57 -39 111 -12 53 -51 198 -86 322 -63 219
-64 225 -46 240 73 57 790 614 887 688 67 51 126 92 132 92 15 0 47 -58 264
-483 104 -202 202 -388 220 -413 131 -191 419 -174 520 31 51 104 50 141 -6
274 -58 138 -504 1037 -587 1183 -33 58 -75 120 -92 137 -60 58 -200 87 -291
60z"/>
</g>
</svg>
